HIERARCHY
ROOT Hip
{
	OFFSET 0 1.131 0.0052
	CHANNELS 6 Xposition Yposition Zposition Xrotation Yrotation Zrotation
	JOINT Abdomen
	{
		OFFSET 0 -0.047353 -0.05
		CHANNELS 3 Xrotation Zrotation Yrotation
		JOINT Chest
		{
			OFFSET 0 0.132153 0.007439
			CHANNELS 3 Xrotation Zrotation Yrotation
			JOINT Neck
			{
				OFFSET 0 0.3078 0.006161
				CHANNELS 3 Xrotation Zrotation Yrotation
				JOINT Head_comp
				{
					OFFSET 0 0.0884 0.013
					CHANNELS 3 Xrotation Yrotation Zrotation
					End Site
					{
						OFFSET -0 0.156 0.0624
					}
				}
			}
			JOINT Left_Collar
			{
				OFFSET 0.02282 0.250342 0.017193
				CHANNELS 2 Yrotation Zrotation
				JOINT Left_Shoulder
				{
					OFFSET 0.15421 0 0
					CHANNELS 3 Xrotation Yrotation Zrotation
					JOINT Left_Forearm
					{
						OFFSET 0.265212 0 0
						CHANNELS 2 Yrotation Xrotation
						JOINT Left_Hand
						{
							OFFSET 0.27571 0 0
							CHANNELS 2 Zrotation Yrotation
							JOINT L1ProxPhalanx
							{
								OFFSET 0.014142 0.001733 0.014142
								CHANNELS 3 Yrotation Zrotation Xrotation
								JOINT L1MidPhalanx
								{
									OFFSET 0.04 0 0
									CHANNELS 1 Zrotation
									JOINT L1DistPhalanx
									{
										OFFSET 0.035 0 0
										CHANNELS 1 Zrotation
										End Site
										{
											OFFSET 0.029 -0 -0
										}
									}
								}
							}
							JOINT L2ProxPhalanx
							{
								OFFSET 0.0821037 0.001578 0.0219996
								CHANNELS 2 Yrotation Zrotation
								JOINT L2MidPhalanx
								{
									OFFSET 0.04 0 0
									CHANNELS 1 Zrotation
									JOINT L2DistPhalanx
									{
										OFFSET 0.028 0 0
										CHANNELS 1 Zrotation
										End Site
										{
											OFFSET 0.02 -0 -0
										}
									}
								}
							}
							JOINT L3ProxPhalanx
							{
								OFFSET 0.083 0 0
								CHANNELS 2 Yrotation Zrotation
								JOINT L3MidPhalanx
								{
									OFFSET 0.053 0 0
									CHANNELS 1 Zrotation
									JOINT L3DistPhalanx
									{
										OFFSET 0.03 0 0
										CHANNELS 1 Zrotation
										End Site
										{
											OFFSET 0.023 -0 -0
										}
									}
								}
							}
							JOINT L4ProxPhalanx
							{
								OFFSET 0.077274 -0.000761 -0.0207055
								CHANNELS 2 Yrotation Zrotation
								JOINT L4MidPhalanx
								{
									OFFSET 0.05 0 0
									CHANNELS 1 Zrotation
									JOINT L4DistPhalanx
									{
										OFFSET 0.03 0 0
										CHANNELS 1 Zrotation
										End Site
										{
											OFFSET 0.023 -0 -0
										}
									}
								}
							}
							JOINT L5ProxPhalanx
							{
								OFFSET 0.0675499 -0.001644 -0.039
								CHANNELS 2 Yrotation Zrotation
								JOINT L5MidPhalanx
								{
									OFFSET 0.04 0 0
									CHANNELS 1 Zrotation
									JOINT L5DistPhalanx
									{
										OFFSET 0.021 0 0
										CHANNELS 1 Zrotation
										End Site
										{
											OFFSET 0.022 -0 -0
										}
									}
								}
							}
						}
					}
				}
			}
			JOINT Right_Collar
			{
				OFFSET -0.02282 0.250342 0.017193
				CHANNELS 2 Yrotation Zrotation
				JOINT Right_Shoulder
				{
					OFFSET -0.15421 0 0
					CHANNELS 3 Xrotation Yrotation Zrotation
					JOINT Right_Forearm
					{
						OFFSET -0.265212 0 0
						CHANNELS 2 Yrotation Xrotation
						JOINT Right_Hand
						{
							OFFSET -0.27571 3e-006 0
							CHANNELS 2 Zrotation Yrotation
							JOINT R1ProxPhalanx
							{
								OFFSET -0.014142 0.001733 0.014142
								CHANNELS 3 Yrotation Zrotation Xrotation
								JOINT R1MidPhalanx
								{
									OFFSET -0.04 0 0
									CHANNELS 1 Zrotation
									JOINT R1DistPhalanx
									{
										OFFSET -0.035 0 0
										CHANNELS 1 Zrotation
										End Site
										{
											OFFSET -0.029 -0 -0
										}
									}
								}
							}
							JOINT R2ProxPhalanx
							{
								OFFSET -0.0821037 0.001578 0.0219996
								CHANNELS 2 Yrotation Zrotation
								JOINT R2MidPhalanx
								{
									OFFSET -0.04 0 0
									CHANNELS 1 Zrotation
									JOINT R2DistPhalanx
									{
										OFFSET -0.028 0 0
										CHANNELS 1 Zrotation
										End Site
										{
											OFFSET -0.02 -0 -0
										}
									}
								}
							}
							JOINT R3ProxPhalanx
							{
								OFFSET -0.083 0 0
								CHANNELS 2 Yrotation Zrotation
								JOINT R3MidPhalanx
								{
									OFFSET -0.053 0 0
									CHANNELS 1 Zrotation
									JOINT R3DistPhalanx
									{
										OFFSET -0.03 0 0
										CHANNELS 1 Zrotation
										End Site
										{
											OFFSET -0.023 -0 -0
										}
									}
								}
							}
							JOINT R4ProxPhalanx
							{
								OFFSET -0.077274 -0.000761 -0.0207055
								CHANNELS 2 Yrotation Zrotation
								JOINT R4MidPhalanx
								{
									OFFSET -0.05 0 0
									CHANNELS 1 Zrotation
									JOINT R4DistPhalanx
									{
										OFFSET -0.03 0 0
										CHANNELS 1 Zrotation
										End Site
										{
											OFFSET -0.023 -0 -0
										}
									}
								}
							}
							JOINT R5ProxPhalanx
							{
								OFFSET -0.0675499 -0.001644 -0.039
								CHANNELS 2 Yrotation Zrotation
								JOINT R5MidPhalanx
								{
									OFFSET -0.04 0 0
									CHANNELS 1 Zrotation
									JOINT R5DistPhalanx
									{
										OFFSET -0.021 0 0
										CHANNELS 1 Zrotation
										End Site
										{
											OFFSET -0.022 -0 -0
										}
									}
								}
							}
						}
					}
				}
			}
		}
	}
	JOINT Left_Thigh
	{
		OFFSET 0.1118 -0.1612 -0.0442
		CHANNELS 3 Xrotation Zrotation Yrotation
		JOINT Left_Shin
		{
			OFFSET 0 -0.477856 0
			CHANNELS 1 Xrotation
			JOINT Left_Foot
			{
				OFFSET 0 -0.431952 0
				CHANNELS 2 Xrotation Zrotation
				JOINT Left_Toe
				{
					OFFSET 0 -0.0442 0.119
					CHANNELS 1 Xrotation
					End Site
					{
						OFFSET -0 -0 0.07
					}
				}
			}
		}
	}
	JOINT Right_Thigh
	{
		OFFSET -0.1118 -0.1612 -0.0442
		CHANNELS 3 Xrotation Zrotation Yrotation
		JOINT Right_Shin
		{
			OFFSET 0 -0.477856 0
			CHANNELS 1 Xrotation
			JOINT Right_Foot
			{
				OFFSET 0 -0.431952 0
				CHANNELS 2 Xrotation Zrotation
				JOINT Right_Toe
				{
					OFFSET 0 -0.0442 0.119
					CHANNELS 1 Xrotation
					End Site
					{
						OFFSET -0 -0 0.07
					}
				}
			}
		}
	}
}
MOTION
Frames: 11
Frame Time: 0.009975
-0.105732 -0.0601032 0.0518658 -1.44128e-013 7.22555e-008 -5.10892e-006 0 0 0 0 0 0 0 0 0 0 0 0 0 0 -0 0 -0 0 0 0 0 -81.4891 -63.9086 63.7976 -3.55423 0.969559 4.21302 0.435734 2.69382 -1.55982 2.97755 1.85873 3.2053 0.152922 3.8701 2.94838 -4.97304 2.28662 10.8703 5.59528 -37.0238 32.1736 0 0 -0 0 -0 0 0 0 0 37.9386 28.008 73.698 26.2405 28.4472 13.118 18.2167 29.0248 19.6359 0 22.4358 32.6146 28.1246 -8.63175 30.7051 32.2053 23.7634 -7.83088 26.7354 35.1526 30.0193 0.798874 -0.382128 -0.00532838 0.0240216 -0.822878 0.38217 0 0.81028 -0.382127 -0.00540445 0 -0.810262 0.38217 0 
-0.105732 -0.0601032 0.0518658 -1.44128e-013 7.22555e-008 -5.10892e-006 0 0 0 0 0 0 0 0 0 0 0 0 0 0 -0 0 -0 0 0 0 0 -81.4891 -63.9086 63.7976 -3.55423 0.969559 4.21302 0.435734 2.69382 -1.55982 2.97755 1.85873 3.2053 0.152922 3.8701 2.94838 -4.97304 2.28662 10.8703 5.59528 -37.0238 32.1736 0 0 -0 0 -0 0 0 0 0 37.9386 28.008 73.698 26.2405 28.4472 13.118 18.2167 29.0248 19.6359 0 22.4358 32.6146 28.1246 -8.63175 30.7051 32.2053 23.7634 -7.83088 26.7354 35.1526 30.0193 0.798874 -0.382128 -0.00532838 0.0240216 -0.822878 0.38217 0 0.81028 -0.382127 -0.00540445 0 -0.810262 0.38217 0 
-0.101405 -0.0600625 0.0434269 2.26871e-014 2.48642e-008 -5.08405e-006 0 -0 0 0 -0 0 0 -0 0 -0.710348 0.291091 -9.06775e-006 1.57373 -22.1382 -17.6701 -16.8837 -35.9753 -41.8807 1.05143 37.5171 9.2036 -81.214 -63.7337 64.0273 -3.71146 0.864711 4.18756 0.283744 2.48035 -1.62702 2.96309 1.68948 2.98927 0.0621579 3.85862 2.77367 -5.14818 2.18518 10.8465 5.44739 -37.0087 31.9127 -1.57373 22.1382 -17.6701 16.8837 35.9753 41.8807 1.05143 -37.5171 -9.2036 81.214 63.7337 64.0273 3.71146 -0.864711 -4.18756 -0.283744 -2.48035 1.62702 -2.96309 -1.68948 -2.98927 -0.0621579 -3.85862 -2.77367 5.14818 -2.18518 -10.8465 -5.44739 37.0087 -31.9127 0.26746 -0.654635 -0.00306353 0.0239015 -0.291344 0.654647 0 0.278808 -0.654634 -0.00319351 0 -0.27879 0.654647 0 
-0.10135 -0.0600611 0.0430707 2.28066e-014 2.49891e-008 -5.1096e-006 0 -0 0 0 -0 0 0 -0 0 -0.712277 0.290955 -1.72859e-010 1.58154 -22.2494 -17.3707 -17.1432 -33.7135 -42.9824 1.05648 37.7052 9.24817 -81.4891 -63.9086 63.7976 -3.55423 0.969559 4.21302 0.435734 2.69382 -1.55982 2.97755 1.85873 3.2053 0.152922 3.8701 2.94838 -4.97304 2.28662 10.8703 5.59528 -37.0238 32.1736 -1.58154 22.2494 -17.3707 17.1432 33.7135 42.9824 1.05648 -37.7052 -9.24817 81.4891 63.9086 63.7976 3.55423 -0.969559 -4.21302 -0.435734 -2.69382 1.55982 -2.97755 -1.85873 -3.2053 -0.152922 -3.8701 -2.94838 4.97304 -2.28662 -10.8703 -5.59528 37.0238 -32.1736 0.244966 -0.658113 -0.00281372 0.0240216 -0.268972 0.658124 0 0.256372 -0.658113 -0.00294473 0 -0.256355 0.658124 0 
-0.10135 -0.0600612 0.0430794 2.28674e-012 2.28472e-008 -5.10961e-006 0 -0 0 0 -0 0 0 -0 0 -0.712265 0.290943 3.88256e-019 1.58154 -22.2494 -17.3681 -17.1442 -33.6984 -42.9892 1.05648 37.7052 9.24817 -81.4891 -63.9086 63.7976 -3.55423 0.969559 4.21302 0.435734 2.69382 -1.55982 2.97755 1.85873 3.2053 0.152922 3.8701 2.94838 -4.97304 2.28662 10.8703 5.59528 -37.0238 32.1736 -1.58154 22.2494 -17.3681 17.1442 33.6984 42.9892 1.05648 -37.7052 -9.24817 81.4891 63.9086 63.7976 3.55423 -0.969559 -4.21302 -0.435734 -2.69382 1.55982 -2.97755 -1.85873 -3.2053 -0.152922 -3.8701 -2.94838 4.97304 -2.28662 -10.8703 -5.59528 37.0238 -32.1736 0.245514 -0.658116 -0.00282002 0.0240216 -0.269519 0.658127 0 0.256919 -0.658116 -0.00295103 0 -0.256902 0.658127 0 
-0.10135 -0.0600612 0.0430796 1.51872e-012 2.29127e-008 -5.10961e-006 0 -0 0 0 -0 0 0 -0 0 -0.712264 0.290941 -3.88256e-019 1.58154 -22.2494 -17.3681 -17.1442 -33.6984 -42.9892 1.05648 37.7052 9.24817 -81.4891 -63.9086 63.7976 -3.55423 0.969559 4.21302 0.435734 2.69382 -1.55982 2.97755 1.85873 3.2053 0.152922 3.8701 2.94838 -4.97304 2.28662 10.8703 5.59528 -37.0238 32.1736 -1.58154 22.2494 -17.3681 17.1442 33.6984 42.9892 1.05648 -37.7052 -9.24817 81.4891 63.9086 63.7976 3.55423 -0.969559 -4.21302 -0.435734 -2.69382 1.55982 -2.97755 -1.85873 -3.2053 -0.152922 -3.8701 -2.94838 4.97304 -2.28662 -10.8703 -5.59528 37.0238 -32.1736 0.245527 -0.658116 -0.00282018 0.0240216 -0.269533 0.658127 0 0.256933 -0.658116 -0.00295118 1.6862e-006 -0.256918 0.658127 0 
-0.10135 -0.0600612 0.0430796 -2.3349e-012 2.29133e-008 -5.10961e-006 0 -0 0 0 -0 0 0 -0 0 -0.712264 0.290941 -0 1.58154 -22.2494 -17.3681 -17.1442 -33.6984 -42.9892 1.05648 37.7052 9.24817 -81.4891 -63.9086 63.7976 -3.55423 0.969559 4.21302 0.435734 2.69382 -1.55982 2.97755 1.85873 3.2053 0.152922 3.8701 2.94838 -4.97304 2.28662 10.8703 5.59528 -37.0238 32.1736 -1.58154 22.2494 -17.3681 17.1442 33.6984 42.9892 1.05648 -37.7052 -9.24817 81.4891 63.9086 63.7976 3.55423 -0.969559 -4.21302 -0.435734 -2.69382 1.55982 -2.97755 -1.85873 -3.2053 -0.152922 -3.8701 -2.94838 4.97304 -2.28662 -10.8703 -5.59528 37.0238 -32.1736 0.245527 -0.658116 -0.00282018 0.0240216 -0.269533 0.658127 0 0.256933 -0.658116 -0.00295118 1.70755e-006 -0.256918 0.658127 0 
-0.10135 -0.0600612 0.0430796 2.56027e-012 2.29133e-008 -5.10961e-006 0 -0 0 0 -0 0 0 -0 0 -0.712264 0.290941 -0 1.58154 -22.2494 -17.3681 -17.1442 -33.6984 -42.9892 1.05648 37.7052 9.24817 -81.4891 -63.9086 63.7976 -3.55423 0.969559 4.21302 0.435734 2.69382 -1.55982 2.97755 1.85873 3.2053 0.152922 3.8701 2.94838 -4.97304 2.28662 10.8703 5.59528 -37.0238 32.1736 -1.58154 22.2494 -17.3681 17.1442 33.6984 42.9892 1.05648 -37.7052 -9.24817 81.4891 63.9086 63.7976 3.55423 -0.969559 -4.21302 -0.435734 -2.69382 1.55982 -2.97755 -1.85873 -3.2053 -0.152922 -3.8701 -2.94838 4.97304 -2.28662 -10.8703 -5.59528 37.0238 -32.1736 0.245527 -0.658116 -0.00282018 0.0240216 -0.269533 0.658127 0 0.256933 -0.658116 -0.00295118 2.41484e-006 -0.256918 0.658127 0 
-0.10135 -0.0600612 0.0430796 1.89889e-012 2.29133e-008 -5.10961e-006 0 -0 0 0 -0 0 0 -0 0 -0.712264 0.290941 -0 1.58154 -22.2494 -17.3681 -17.1442 -33.6984 -42.9892 1.05648 37.7052 9.24817 -81.4891 -63.9086 63.7976 -3.55423 0.969559 4.21302 0.435734 2.69382 -1.55982 2.97755 1.85873 3.2053 0.152922 3.8701 2.94838 -4.97304 2.28662 10.8703 5.59528 -37.0238 32.1736 -1.58154 22.2494 -17.3681 17.1442 33.6984 42.9892 1.05648 -37.7052 -9.24817 81.4891 63.9086 63.7976 3.55423 -0.969559 -4.21302 -0.435734 -2.69382 1.55982 -2.97755 -1.85873 -3.2053 -0.152922 -3.8701 -2.94838 4.97304 -2.28662 -10.8703 -5.59528 37.0238 -32.1736 0.245527 -0.658116 -0.00282018 0.0240216 -0.269533 0.658127 0 0.256933 -0.658116 -0.00295118 2.41484e-006 -0.256918 0.658127 0 
-0.10135 -0.0600612 0.0430796 7.59733e-013 2.29133e-008 -5.10961e-006 0 -0 0 0 -0 0 0 -0 0 -0.712264 0.290941 3.88256e-019 1.58154 -22.2494 -17.3681 -17.1442 -33.6984 -42.9892 1.05648 37.7052 9.24817 -81.4891 -63.9086 63.7976 -3.55423 0.969559 4.21302 0.435734 2.69382 -1.55982 2.97755 1.85873 3.2053 0.152922 3.8701 2.94838 -4.97304 2.28662 10.8703 5.59528 -37.0238 32.1736 -1.58154 22.2494 -17.3681 17.1442 33.6984 42.9892 1.05648 -37.7052 -9.24817 81.4891 63.9086 63.7976 3.55423 -0.969559 -4.21302 -0.435734 -2.69382 1.55982 -2.97755 -1.85873 -3.2053 -0.152922 -3.8701 -2.94838 4.97304 -2.28662 -10.8703 -5.59528 37.0238 -32.1736 0.245527 -0.658116 -0.00282018 0.0240216 -0.269533 0.658127 0 0.256933 -0.658116 -0.00295118 1.70755e-006 -0.256918 0.658127 0 
-0.10135 -0.0600612 0.0430796 -1.02819e-012 2.29133e-008 -5.10961e-006 0 -0 0 0 -0 0 0 -0 0 -0.712264 0.290941 -0 1.58154 -22.2494 -17.3681 -17.1442 -33.6984 -42.9892 1.05648 37.7052 9.24817 -81.4891 -63.9086 63.7976 -3.55423 0.969559 4.21302 0.435734 2.69382 -1.55982 2.97755 1.85873 3.2053 0.152922 3.8701 2.94838 -4.97304 2.28662 10.8703 5.59528 -37.0238 32.1736 -1.58154 22.2494 -17.3681 17.1442 33.6984 42.9892 1.05648 -37.7052 -9.24817 81.4891 63.9086 63.7976 3.55423 -0.969559 -4.21302 -0.435734 -2.69382 1.55982 -2.97755 -1.85873 -3.2053 -0.152922 -3.8701 -2.94838 4.97304 -2.28662 -10.8703 -5.59528 37.0238 -32.1736 0.245527 -0.658116 -0.00282018 0.0240216 -0.269533 0.658127 0 0.256933 -0.658116 -0.00295118 6.03709e-008 -0.256918 0.658127 0 
